<svg xmlns="http://www.w3.org/2000/svg" viewBox="0 0 50.35 66.03"><defs><style>.cls-1,.cls-2{fill:#fff;}.cls-2{stroke:#fff;stroke-miterlimit:10;}</style></defs><g id="Layer_3" data-name="Layer 3"><ellipse class="cls-1" cx="42.65" cy="7" rx="6.77" ry="6.5"/><path class="cls-1" d="M53.47,4.3a6.14,6.14,0,0,1,6.27,6,6.28,6.28,0,0,1-12.54,0,6.15,6.15,0,0,1,6.27-6m0-1a7.14,7.14,0,0,0-7.27,7,7.28,7.28,0,0,0,14.54,0,7.13,7.13,0,0,0-7.27-7Z" transform="translate(-10.83 -3.3)"/><path class="cls-1" d="M54,68.83a6.68,6.68,0,1,1,6.67-6.68A6.68,6.68,0,0,1,54,68.83Z" transform="translate(-10.83 -3.3)"/><path class="cls-1" d="M54,56a6.18,6.18,0,1,1-6.17,6.17A6.18,6.18,0,0,1,54,56m0-1a7.18,7.18,0,1,0,7.17,7.17A7.17,7.17,0,0,0,54,55Z" transform="translate(-10.83 -3.3)"/><path class="cls-1" d="M18,42.67a6.67,6.67,0,0,1-4.78-11.32,6.57,6.57,0,0,1,4.78-2,6.67,6.67,0,0,1,0,13.34Z" transform="translate(-10.83 -3.3)"/><path class="cls-1" d="M18,29.83a6.16,6.16,0,1,1-4.43,1.87A6.18,6.18,0,0,1,18,29.83m0-1A7.17,7.17,0,1,0,25.17,36,7.13,7.13,0,0,0,18,28.83Z" transform="translate(-10.83 -3.3)"/><polyline class="cls-2" points="46.93 53.32 10.88 27.31 3.08 38.02 39.13 64.03"/><polyline class="cls-2" points="47.52 11.63 11.46 37.64 3.23 27.31 39.28 1.31"/><path class="cls-2" d="M55.21,54.14,36.52,40.69a5.8,5.8,0,0,1,0-9.4L57,16.43,40.25,17.71,16.1,40.35l34.47,15.5Z" transform="translate(-10.83 -3.3)"/></g></svg>