<svg xmlns="http://www.w3.org/2000/svg" viewBox="0 0 50.35 66.03"><defs><style>.cls-1,.cls-2{fill:#fff;}.cls-2{stroke:#fff;stroke-miterlimit:10;}</style></defs><g id="Layer_3" data-name="Layer 3"><path class="cls-1" d="M18.53,16.8a6.65,6.65,0,0,1-6.78-6.5,6.65,6.65,0,0,1,6.78-6.5,6.64,6.64,0,0,1,6.77,6.5A6.65,6.65,0,0,1,18.53,16.8Z" transform="translate(-10.83 -3.3)"/><path class="cls-1" d="M18.53,4.3a6.15,6.15,0,0,1,6.27,6,6.15,6.15,0,0,1-6.27,6,6.14,6.14,0,0,1-6.27-6,6.14,6.14,0,0,1,6.27-6m0-1a7.13,7.13,0,0,0-7.27,7,7.14,7.14,0,0,0,7.27,7,7.15,7.15,0,0,0,7.27-7,7.14,7.14,0,0,0-7.27-7Z" transform="translate(-10.83 -3.3)"/><path class="cls-1" d="M18,68.83a6.68,6.68,0,1,1,6.67-6.68A6.68,6.68,0,0,1,18,68.83Z" transform="translate(-10.83 -3.3)"/><path class="cls-1" d="M18,56a6.18,6.18,0,1,1-6.17,6.17A6.18,6.18,0,0,1,18,56m0-1a7.18,7.18,0,1,0,7.17,7.17A7.17,7.17,0,0,0,18,55Z" transform="translate(-10.83 -3.3)"/><path class="cls-1" d="M54,42.67a6.67,6.67,0,0,1,0-13.34A6.66,6.66,0,0,1,60.67,36,6.67,6.67,0,0,1,54,42.67Z" transform="translate(-10.83 -3.3)"/><path class="cls-1" d="M54,29.83A6.17,6.17,0,1,1,47.83,36,6.13,6.13,0,0,1,54,29.83m0-1A7.17,7.17,0,1,0,59.14,31,7.17,7.17,0,0,0,54,28.83Z" transform="translate(-10.83 -3.3)"/><polyline class="cls-2" points="3.42 53.32 39.47 27.31 47.27 38.02 11.22 64.03"/><polyline class="cls-2" points="2.83 11.63 38.88 37.64 47.12 27.31 11.07 1.31"/><path class="cls-2" d="M16.79,54.14,35.48,40.69a5.8,5.8,0,0,0,0-9.4L15,16.43l16.73,1.28L55.9,40.35,21.43,55.85Z" transform="translate(-10.83 -3.3)"/></g></svg>