<svg xmlns="http://www.w3.org/2000/svg" viewBox="0 0 182.07 57.96"><defs><style>.cls-1,.cls-3{fill:none;}.cls-2{fill:#fff;}.cls-3{stroke:#000;stroke-miterlimit:10;stroke-width:0.25px;}</style></defs><g id="Layer_3" data-name="Layer 3"><path class="cls-1" d="M88.13,63.66h-2.8l-2,7.6h2c3.08,0,5.08-.88,5.88-3.68C91.77,65.38,91,63.66,88.13,63.66Z" transform="translate(-16.48 -45.46)"/><polygon class="cls-1" points="117.57 28.88 123.13 28.88 122.65 20.48 117.57 28.88"/><path class="cls-1" d="M198.55,58,163.94,45.92,28.31,45.46,16.48,90.12l67.94,13.3,64.36-17,4.41-23.83h3l1-3.89h12V72.58l7.44-13.88h12.56l-1.13,4.21,2,.06ZM52.05,67.3a8.37,8.37,0,0,1-.16,1.36l-6.32-.8a7.71,7.71,0,0,0,0-1c-.2-2.28-2-3.6-4.6-3.6-1.68,0-2.8.68-3.12,1.76-.36,1.44.28,2.32,5,4,5.16,2,8.4,4.36,7,9.64-1.28,4.72-5.32,7.28-11,7.28-7.08,0-12.32-3.68-12-9.8l.12-1.16,6.52.84a3.89,3.89,0,0,0,0,.64c.2,2.72,2,4.12,5,4.12,1.64,0,2.8-.72,3.12-2,.48-1.8-2.08-3-4.76-3.92-5-1.92-8.16-4.56-6.76-9.68C31.29,60.58,35.85,58,41.17,58,47.05,58,52.57,60.74,52.05,67.3Zm10.68,18H54.49L60,64.62H53.33l1.6-5.92H76.45l-1.6,5.92h-6.6Zm34-1-.2,1h-8.2l.2-1.4c.76-5.72-1.16-8.48-6.16-8.44h-.2l-2.6,9.84h-8L78.65,58.7H89.21c7.64,0,11.32,2.92,9.8,9-.84,3.24-3.84,4.88-7.76,5.56C96,74.7,97.61,78.54,96.73,84.26Zm1.72,1,7.12-26.56h20.8l-1.52,5.68H112.13l-1.24,4.56h7.72l-1.56,5.8h-7.72l-1.24,4.72h13l-1.56,5.8Zm41.76,0-.52-6.12h-8.32l-3.56,6.12h-7L137.13,58.7h9.12l2.16,26.56Z" transform="translate(-16.48 -45.46)"/><path class="cls-2" d="M41.17,58c-5.32,0-9.88,2.6-11.12,7.12-1.4,5.12,1.76,7.76,6.76,9.68,2.68,1,5.24,2.12,4.76,3.92-.32,1.24-1.48,2-3.12,2-3,0-4.8-1.4-5-4.12a3.89,3.89,0,0,1,0-.64l-6.52-.84-.12,1.16c-.36,6.12,4.88,9.8,12,9.8,5.72,0,9.76-2.56,11-7.28,1.44-5.28-1.8-7.64-7-9.64-4.72-1.72-5.36-2.6-5-4,.32-1.08,1.44-1.76,3.12-1.76,2.56,0,4.4,1.32,4.6,3.6a7.71,7.71,0,0,1,0,1l6.32.8a8.37,8.37,0,0,0,.16-1.36C52.57,60.74,47.05,58,41.17,58Z" transform="translate(-16.48 -45.46)"/><polygon class="cls-2" points="59.97 13.24 38.45 13.24 36.85 19.16 43.53 19.16 38.01 39.8 46.25 39.8 51.77 19.16 58.37 19.16 59.97 13.24"/><path class="cls-2" d="M99,67.7c1.52-6.08-2.16-9-9.8-9H78.65L71.53,85.26h8l2.6-9.84h.2c5,0,6.92,2.72,6.16,8.44l-.2,1.4h8.2l.2-1c.88-5.72-.76-9.56-5.48-11C95.17,72.58,98.17,70.94,99,67.7Zm-7.84-.12c-.8,2.8-2.8,3.68-5.88,3.68h-2l2-7.6h2.8C91,63.66,91.77,65.38,91.17,67.58Z" transform="translate(-16.48 -45.46)"/><polygon class="cls-2" points="91.61 34 92.85 29.28 100.57 29.28 102.13 23.48 94.41 23.48 95.65 18.92 108.36 18.92 109.89 13.24 89.09 13.24 81.97 39.8 103.09 39.8 104.65 34 91.61 34"/><path class="cls-2" d="M137.13,58.7,120.77,85.26h7l3.56-6.12h8.32l.52,6.12h8.2L146.25,58.7Zm-3.08,15.64,5.08-8.4.48,8.4Z" transform="translate(-16.48 -45.46)"/><polygon class="cls-2" points="160.21 13.24 152.77 27.12 152.77 13.24 140.73 13.24 139.69 17.13 148.46 17.13 151.38 29.27 154.52 28.11 160.83 17.13 171.63 17.45 172.76 13.24 160.21 13.24"/></g><g id="Layer_2" data-name="Layer 2"><path class="cls-2" d="M157.21,58.7s-.91,2.51-1.8,6C153.2,73.58,155,84.4,146,90.55c-4,2.75-5.37,8.91-5.37,8.91h9.83s-1.32-3.32,2.86-7.89a19.64,19.64,0,0,0,5.13-10.47c1-7,7.75-14.44,7.75-14.44V62.13Z" transform="translate(-16.48 -45.46)"/><path class="cls-2" d="M161.93,64.94a142.36,142.36,0,0,1-.21,14.86c-.51,6.74-1.16,8.06-4.92,12.9-3,3.83-.54,6.76-.54,6.76h10.21s-4.54-3.74-.23-7.61c2.1-1.88,6.15-4.38,6.84-10.06,1.33-10.93,11-19.89,11-19.89l-6.8-.54-5.06,9-3,2.22V65Z" transform="translate(-16.48 -45.46)"/><path class="cls-2" d="M176.24,66.82s6.75,14.74-1.09,23.34a19.84,19.84,0,0,0-4.9,9.48l13-.18s-2.46-4.38-1.07-7.22c2.39-4.88,4.15-5.38,4.38-15.13.27-11.56,2.64-18.41,2.64-18.41Z" transform="translate(-16.48 -45.46)"/><path class="cls-3" d="M149.76,83.91" transform="translate(-16.48 -45.46)"/></g></svg>